<svg id="svg-logo" xmlns="http://www.w3.org/2000/svg" xmlns:xlink="http://www.w3.org/1999/xlink" x="0px" y="0px" viewBox="0 0 572.5 72.1" style="enable-background:new 0 0 572.5 72.1;" xml:space="preserve">
<style type="text/css">
.st0{fill:#29BCB0;}
</style>
<g>
<path d="M251.9,54.2l7.8,5.9c-0.5,0.7-1.4,1.7-2.7,3s-3,2.6-5.1,4c-2.1,1.3-4.7,2.5-7.7,3.5s-6.5,1.5-10.4,1.5   c-5.4,0-10.3-1-14.7-3.1s-8.1-4.8-11.1-8.1c-3.1-3.4-5.4-7.1-7-11.4c-1.6-4.2-2.4-8.5-2.4-12.8c0-5.3,0.9-10.2,2.6-14.7   c1.7-4.5,4.2-8.4,7.3-11.6c3.1-3.3,6.9-5.8,11.3-7.6c4.4-1.8,9.2-2.7,14.5-2.7c4.5,0,9,0.9,13.3,2.6c4.4,1.7,7.9,4.4,10.7,8   l-7.6,5.8c-1.9-2.5-4.4-4.5-7.4-5.8c-3-1.4-6-2-9.2-2c-3.9,0-7.4,0.7-10.5,2.2s-5.8,3.4-8,6c-2.2,2.5-4,5.5-5.2,8.9   c-1.2,3.4-1.8,7-1.8,10.9c0,3.6,0.6,7,1.7,10.3c1.2,3.2,2.8,6.1,5,8.5c2.2,2.5,4.9,4.4,8,5.8c3.2,1.4,6.7,2.1,10.7,2.1   c3.9,0,7.4-0.8,10.4-2.4C247.4,59.4,249.9,57.1,251.9,54.2z M367.4,1.7l29.3,68.5h-10.8L379,53.3h-32.6l-6.8,16.9h-10.8L359,1.7   H367.4z M375.7,45.2l-12.8-31.5h-0.2l-13,31.5H375.7z M312.1,30.2h-35.5V1.7h-9.3v68.6h9.3V38.9h35.5v31.4h9.3V1.7h-9.3V30.2z    M433.4,38.9l19.5,31.3h-11.6L423.9,40h-10.4v30.2h-9.3V1.7h0h24.1c4.4,0,8,0.6,10.8,1.8s5.1,2.7,6.7,4.5s2.8,3.9,3.4,6.2   c0.6,2.3,1,4.5,1,6.6c0,2.2-0.4,4.3-1.2,6.3c-0.8,2-1.9,3.9-3.3,5.5c-1.5,1.6-3.2,3-5.3,4.2C438.3,37.9,436,38.6,433.4,38.9z    M431.1,31.5c1.8-0.3,3.4-0.8,4.7-1.6c1.4-0.8,2.5-1.9,3.3-3.3c0.8-1.5,1.3-3.3,1.3-5.7c0-2.3-0.4-4.2-1.3-5.7   c-0.8-1.5-2-2.6-3.3-3.3c-1.4-0.8-3-1.3-4.7-1.6c-1.8-0.3-3.6-0.4-5.4-0.4h-12.2v22h12.2C427.5,31.9,429.3,31.8,431.1,31.5z    M493.9,40.8h15.2v19.1c-2.1,1.2-4.6,2.1-7.5,2.7c-2.9,0.6-6,0.9-9.3,0.9c-3.8,0-7.3-0.7-10.5-2.1c-3.2-1.4-6-3.3-8.4-5.8   s-4.2-5.4-5.6-8.7c-1.3-3.3-2-6.9-2-10.8c0-3.7,0.6-7.3,1.8-10.6c1.2-3.4,2.9-6.2,5.2-8.7c2.2-2.5,4.9-4.4,8.1-5.9   c3.1-1.5,6.7-2.2,10.6-2.2c3.5,0,6.8,0.5,10,1.6c3.2,1.1,6.2,3,9,5.7l6.6-7.1C514.4,6.2,511,4,507,2.4c-4-1.6-9.2-2.4-15.5-2.4   c-5.2,0-10,1-14.4,2.8s-8.2,4.4-11.3,7.6c-3.2,3.2-5.6,7-7.4,11.4c-1.8,4.4-2.7,9.1-2.7,14.2c0,4.8,0.9,9.4,2.5,13.8   c1.7,4.4,4.1,8.2,7.2,11.5s7,5.9,11.5,7.8s9.7,2.9,15.5,2.9c2,0,4.2-0.1,6.6-0.4c2.4-0.2,4.7-0.7,7-1.2c2.3-0.6,4.5-1.2,6.6-2   s4-1.7,5.7-2.7V32.1h-24.4V40.8z M535.8,61.6v-22h32.5v-8.7h-32.5V10.5h34.9V1.7h-44.2v68.6h46v-8.7H535.8z M45.8,61   c-3,1.6-6.5,2.4-10.4,2.4c-4,0-7.5-0.7-10.7-2.1c-3.1-1.4-5.8-3.3-8-5.8c-2.2-2.4-3.8-5.3-5-8.5c-1.1-3.3-1.7-6.7-1.7-10.3   c0-3.9,0.6-7.5,1.8-10.9c1.2-3.4,3-6.4,5.2-8.9c2.2-2.6,4.9-4.5,8-6s6.6-2.2,10.5-2.2c3.2,0,6.2,0.6,9.2,2c3,1.3,5.5,3.3,7.4,5.8   l7.6-5.8c-2.8-3.6-6.3-6.3-10.7-8C44.7,1,40.2,0.1,35.7,0.1c-5.3,0-10.1,0.9-14.5,2.7C16.8,4.6,13,7.1,9.9,10.4   C6.8,13.6,4.3,17.5,2.6,22C0.9,26.5,0,31.4,0,36.7c0,4.3,0.8,8.6,2.4,12.8c1.6,4.3,3.9,8,7,11.4c3,3.3,6.7,6,11.1,8.1   s9.3,3.1,14.7,3.1c3.9,0,7.4-0.5,10.4-1.5s5.6-2.2,7.7-3.5c2.1-1.4,3.8-2.7,5.1-4s2.2-2.3,2.7-3l-7.8-5.9   C51.3,57.1,48.8,59.4,45.8,61z M192.7,45c0.7,1.9,1.1,4,1.1,6.2c0,3.6-0.8,6.6-2.3,9s-3.5,4.4-6,5.9s-5.2,2.6-8.3,3.2   c-3.1,0.6-6.1,1-9.1,1H140V1.7h0.1h25.5c3,0,6,0.2,9,0.6c3,0.4,5.7,1.3,8.1,2.5c2.4,1.3,4.3,3,5.8,5.3s2.2,5.3,2.2,9   c0,3.9-1.1,7.1-3.2,9.6c-2.2,2.6-5,4.4-8.6,5.5v0.2c2.3,0.3,4.3,1,6.1,1.9s3.4,2.1,4.7,3.6S192,43,192.7,45z M155,29.1h0.2h10.9   c1.2,0,2.3-0.1,3.4-0.4c1.1-0.3,2.1-0.7,3-1.3s1.6-1.4,2.2-2.3c0.5-1,0.8-2.1,0.8-3.5c0-1.4-0.3-2.6-0.9-3.5   c-0.6-0.9-1.4-1.7-2.4-2.2s-2.1-0.9-3.3-1.1s-2.4-0.3-3.6-0.3H155V29.1z M178.8,49.4c0-1.6-0.4-2.9-1.2-3.9s-1.8-1.8-3-2.3   s-2.5-0.9-4-1.1c-1.4-0.2-2.7-0.3-4-0.3h-11.4v15.7h13.6c1.2,0,2.3-0.1,3.5-0.4c1.2-0.3,2.3-0.7,3.2-1.4c1-0.6,1.8-1.5,2.4-2.5   C178.5,52.2,178.8,50.9,178.8,49.4z M98.8,43.2V19l16.4,6.4L104.9,1.7H92.4L62.8,70.3h16.6l5.7-14.6h26.7l5.9,14.6h17L119.4,35   L98.8,43.2z"></path>
<polygon class="st0" points="98.8,43.2 129.6,31 98.8,19  "></polygon>
</g>
</svg>